<?xml version="1.0" encoding="iso-8859-1"?>
<!-- Generator: Adobe Illustrator 19.0.0, SVG Export Plug-In . SVG Version: 6.00 Build 0)  -->
<svg version="1.1" id="Capa_1" xmlns="http://www.w3.org/2000/svg" xmlns:xlink="http://www.w3.org/1999/xlink" x="0px" y="0px"
	 viewBox="0 0 464 464" style="enable-background:new 0 0 464 464;" xml:space="preserve">
<g>
	<path style="fill:#FFEBE1;" d="M328,136V8c0-4.418-3.582-8-8-8H192c0,0,0,87,0,136c0,0.675,0.009,1.347,0.013,2.02
		c0.799,0.396,1.601,0.791,2.53,1.123c0.612,0.22,1.308,0.399,2.068,0.545c0.121,0.023,0.223,0.055,0.349,0.076
		c0.865,0.144,1.841,0.232,2.99,0.234c7.958-0.015,7.978-3.998,15.964-3.998c0.011,0,0.018,0.002,0.029,0.002
		s0.018-0.002,0.029-0.002c7.987,0,7.998,3.991,15.969,3.999c7.516-0.007,8.045-3.505,14.748-3.918
		c0.415-0.025,0.771-0.08,1.237-0.08h0.001h0.002c8.007,0,8.021,3.988,16.008,3.998c0.108,0,0.184-0.017,0.29-0.019
		c0.963-0.012,1.808-0.084,2.564-0.2c0.426-0.067,0.796-0.162,1.17-0.253c0.342-0.083,0.688-0.162,0.997-0.262
		c3.523-1.153,5.127-3.265,10.956-3.265c8.003,0,8.003,4,16.005,4c8.005,0,8.005-4,16.01-4c0.026,0,0.044,0.004,0.07,0.004
		c0,15.708-2.68,31.215-7.098,46.413c-0.014-0.007-0.028-0.014-0.043-0.021c-9.695,33.374-27.747,65.257-44.322,94.456
		c-7.873,13.868-15.314,26.977-21.402,39.435c-2.893,5.921-11.378,5.921-14.271,0c-0.381-0.781-0.783-1.572-1.175-2.357
		C228.555,334.306,232,352.504,232,368v52.325c0,11.44-6.698,21.29-11.372,23.534l-5.683,2.728c-1.712,0.822-2.945,4.43-2.945,8.621
		c0,4.856,1.64,8.792,3.664,8.792h55.544c4.855,0,8.792-3.937,8.792-8.792c0-4.191-2.958-7.799-7.068-8.621l-13.639-2.728
		C248.075,441.615,240,431.764,240,420.324V368C240,315.182,328,231,328,136z M224,112c-4.418,0-8-3.582-8-8s3.582-8,8-8
		s8,3.582,8,8S228.418,112,224,112z M240,56c-4.418,0-8-3.582-8-8s3.582-8,8-8s8,3.582,8,8S244.418,56,240,56z M280,96
		c-4.418,0-8-3.582-8-8s3.582-8,8-8s8,3.582,8,8S284.418,96,280,96z"/>
	<path style="fill:#FFE1CD;" d="M212,455.208c0-4.191,1.232-7.799,2.945-8.621l5.683-2.728c4.674-2.244,11.372-12.093,11.372-23.534
		V368c0-15.496-3.445-33.694-8.311-54.071c-0.018-0.036-0.037-0.073-0.055-0.11c0.023,0.096,0.048,0.196,0.071,0.292
		c-5.885-11.824-12.814-24.174-20.243-37.259c-16.568-29.186-34.611-61.053-44.309-94.411c-0.014,0.007-0.028,0.014-0.042,0.02
		c-4.427-15.213-7.111-30.736-7.112-46.459c7.964,0.011,7.978,3.998,15.962,3.998c7.982,0,7.982-4,15.964-4
		c0.457,0,0.879,0.017,1.287,0.042c0.105,0.006,0.208,0.014,0.31,0.022c0.354,0.027,0.693,0.061,1.014,0.105
		c0.037,0.005,0.077,0.008,0.114,0.014c0.364,0.052,0.704,0.116,1.031,0.187c0.056,0.012,0.111,0.025,0.166,0.038
		c0.302,0.069,0.592,0.145,0.868,0.228c0.016,0.005,0.032,0.009,0.047,0.014c1.243,0.378,2.247,0.875,3.25,1.373
		c-0.004-0.673-0.013-1.345-0.013-2.02c0-49,0-136,0-136h-48c-4.418,0-8,3.582-8,8v128c0,95,88,179.182,88,232v52.325
		c0,11.44-8.075,21.29-19.292,23.533l-13.64,2.728c-4.11,0.822-7.068,4.43-7.068,8.621c0,4.856,3.937,8.792,8.792,8.792h22.872
		C213.64,464,212,460.063,212,455.208z M176,64c4.418,0,8,3.582,8,8s-3.582,8-8,8s-8-3.582-8-8S171.582,64,176,64z"/>
	<path style="fill:#FACD91;" d="M280.074,184c-5.635,0-7.33-1.971-10.621-3.145c-0.607-0.219-1.299-0.396-2.053-0.542
		c-0.125-0.023-0.232-0.058-0.363-0.079c-0.864-0.143-1.839-0.231-2.986-0.233c-7.958,0.015-7.978,3.998-15.964,3.998
		c-0.011,0-0.018-0.002-0.029-0.002S248.039,184,248.028,184c-7.987,0-7.998-3.991-15.969-3.999
		c-7.516,0.007-8.045,3.505-14.748,3.918c-0.415,0.026-0.771,0.08-1.237,0.08h-0.001h-0.002c-8.007,0-8.021-3.988-16.008-3.998
		c-0.11,0-0.186,0.017-0.292,0.019c-0.96,0.012-1.803,0.084-2.558,0.199c-0.431,0.067-0.806,0.163-1.184,0.256
		c-0.336,0.082-0.679,0.161-0.982,0.258c-0.066,0.021-0.126,0.045-0.191,0.067c5.88,49.664,19.724,95.104,28.779,133.019
		c0.018,0.037,0.036,0.073,0.055,0.11c0.392,0.786,0.794,1.577,1.175,2.357c2.893,5.921,11.378,5.921,14.271,0
		c6.087-12.458,13.529-25.567,21.402-39.435c16.575-29.199,34.627-61.082,44.322-94.456c-2.31-1.114-4.284-2.396-8.822-2.396
		C288.056,180,288.056,184,280.074,184z M232,224c-4.418,0-8-3.582-8-8s3.582-8,8-8s8,3.582,8,8S236.418,224,232,224z M248,256
		c-4.418,0-8-3.582-8-8s3.582-8,8-8s8,3.582,8,8S252.418,256,248,256z"/>
	<path style="fill:#F0BE7D;" d="M194.855,180.801c-0.004,0.002-0.009,0.003-0.013,0.005c0,0.004,0.001,0.008,0.001,0.012
		c-2.721,0.941-4.341,2.432-7.858,2.974c-0.01,0.002-0.018,0.003-0.028,0.005c-0.24,0.037-0.493,0.067-0.751,0.094
		c-0.044,0.005-0.084,0.011-0.129,0.016c-0.249,0.024-0.513,0.042-0.781,0.057c-0.059,0.003-0.112,0.009-0.172,0.012
		c-0.331,0.016-0.677,0.024-1.039,0.024c-8.003,0-8.003-4-16.005-4c-4.604,0-6.572,1.317-8.927,2.441
		c9.698,33.358,27.741,65.225,44.309,94.411c7.429,13.085,14.357,25.435,20.243,37.259c-0.023-0.096-0.048-0.196-0.071-0.292
		C214.579,275.906,200.735,230.466,194.855,180.801z"/>
	<circle style="fill:#F0BE7D;" cx="248" cy="248" r="8"/>
	<circle style="fill:#FFFFFF;" cx="280" cy="88" r="8"/>
	<circle style="fill:#FFEBE1;" cx="176" cy="72" r="8"/>
	<circle style="fill:#FFFFFF;" cx="240" cy="48" r="8"/>
	<circle style="fill:#FFFFFF;" cx="224" cy="104" r="8"/>
	<circle style="fill:#F0BE7D;" cx="232" cy="216" r="8"/>
	<path style="fill:#FFFFFF;" d="M183.926,136c0.457,0,0.879,0.017,1.287,0.042C184.805,136.017,184.383,136,183.926,136z"/>
	<path style="fill:#FFFFFF;" d="M185.523,136.063c0.354,0.027,0.694,0.061,1.014,0.105
		C186.216,136.124,185.877,136.09,185.523,136.063z"/>
	<path style="fill:#FFFFFF;" d="M187.847,136.406c0.302,0.07,0.593,0.145,0.868,0.228
		C188.44,136.551,188.15,136.476,187.847,136.406z"/>
	<path style="fill:#FFFFFF;" d="M192.052,138.045c0.088,14.545,1.137,28.806,2.791,42.761c0.004-0.001,0.009-0.003,0.013-0.005
		c0.064-0.022,0.125-0.046,0.191-0.067c0.303-0.098,0.646-0.177,0.982-0.258c0.378-0.093,0.753-0.189,1.184-0.256
		c0.754-0.115,1.597-0.187,2.558-0.199c0.107-0.002,0.183-0.019,0.292-0.019c7.987,0.01,8.001,3.998,16.008,3.998h0.002h0.001
		c0.466,0,0.822-0.054,1.237-0.08c6.703-0.413,7.232-3.911,14.748-3.918c7.972,0.008,7.982,3.999,15.969,3.999
		c0.011,0,0.018-0.002,0.029-0.002s0.018,0.002,0.029,0.002c7.987,0,8.006-3.983,15.964-3.998c1.147,0.002,2.122,0.09,2.986,0.233
		c0.131,0.021,0.238,0.055,0.363,0.079c0.754,0.146,1.446,0.323,2.053,0.542c3.291,1.173,4.986,3.145,10.621,3.145
		c7.982,0,7.982-4,15.964-4c4.537,0,6.511,1.282,8.822,2.396c0.014,0.007,0.028,0.014,0.043,0.021
		C309.32,167.22,312,151.712,312,136.004c-0.026,0-0.044-0.004-0.07-0.004c-8.005,0-8.005,4-16.01,4c-8.002,0-8.002-4-16.005-4
		c-5.829,0-7.433,2.112-10.956,3.265c-0.308,0.1-0.655,0.179-0.997,0.262c-0.375,0.092-0.745,0.187-1.17,0.253
		c-0.756,0.116-1.601,0.188-2.564,0.2c-0.106,0.002-0.181,0.019-0.29,0.019c-7.987-0.01-8.001-3.998-16.008-3.998h-0.002h-0.001
		c-0.466,0-0.822,0.055-1.237,0.08c-6.703,0.414-7.232,3.911-14.748,3.918c-7.972-0.008-7.982-3.999-15.969-3.999
		c-0.011,0-0.018,0.002-0.029,0.002S215.925,136,215.915,136c-7.987,0-8.006,3.983-15.964,3.998c-1.149-0.002-2.125-0.09-2.99-0.234
		c-0.126-0.021-0.228-0.053-0.349-0.076c-0.76-0.146-1.457-0.325-2.068-0.545c-0.929-0.331-1.73-0.726-2.53-1.123
		c-1.004-0.497-2.008-0.995-3.25-1.373C190.022,137.031,191.033,137.54,192.052,138.045z"/>
	<path style="fill:#FFFFFF;" d="M186.651,136.182c0.363,0.052,0.705,0.116,1.031,0.187
		C187.355,136.297,187.014,136.234,186.651,136.182z"/>
	<path style="fill:#FFFFFF;" d="M186.206,183.892c-0.044,0.005-0.084,0.011-0.129,0.016
		C186.122,183.903,186.162,183.896,186.206,183.892z"/>
	<path style="fill:#FFFFFF;" d="M185.296,183.964c-0.059,0.003-0.112,0.009-0.172,0.012
		C185.184,183.973,185.237,183.967,185.296,183.964z"/>
	<path style="fill:#FFFFFF;" d="M186.985,183.793c-0.01,0.001-0.018,0.003-0.028,0.005
		C186.967,183.796,186.976,183.794,186.985,183.793z"/>
	<path style="fill:#FFEBE1;" d="M184.085,184c0.362,0,0.707-0.008,1.039-0.024c0.06-0.003,0.113-0.009,0.172-0.012
		c0.268-0.015,0.532-0.032,0.781-0.057c0.045-0.004,0.085-0.011,0.129-0.016c0.259-0.027,0.511-0.058,0.751-0.094
		c0.01-0.001,0.018-0.003,0.028-0.005c3.517-0.542,5.137-2.034,7.858-2.974c0-0.004-0.001-0.008-0.001-0.012
		c-1.654-13.955-2.703-28.216-2.791-42.761c-1.019-0.505-2.029-1.013-3.289-1.397c-0.016-0.005-0.032-0.009-0.047-0.014
		c-0.275-0.083-0.566-0.158-0.868-0.228c-0.055-0.013-0.11-0.026-0.166-0.038c-0.326-0.071-0.667-0.134-1.031-0.187
		c-0.036-0.005-0.077-0.009-0.114-0.014c-0.32-0.044-0.66-0.078-1.014-0.105c-0.102-0.008-0.205-0.015-0.31-0.022
		c-0.408-0.024-0.83-0.042-1.287-0.042c-7.982,0-7.982,4-15.964,4c-7.984,0-7.999-3.987-15.962-3.998
		c0,15.724,2.685,31.247,7.112,46.459c0.014-0.007,0.028-0.014,0.042-0.02c2.354-1.124,4.323-2.441,8.927-2.441
		C176.083,180,176.083,184,184.085,184z"/>
</g>
<g>
</g>
<g>
</g>
<g>
</g>
<g>
</g>
<g>
</g>
<g>
</g>
<g>
</g>
<g>
</g>
<g>
</g>
<g>
</g>
<g>
</g>
<g>
</g>
<g>
</g>
<g>
</g>
<g>
</g>
</svg>
