<?xml version="1.0" encoding="iso-8859-1"?>
<!-- Generator: Adobe Illustrator 19.0.0, SVG Export Plug-In . SVG Version: 6.00 Build 0)  -->
<svg version="1.1" id="Capa_1" xmlns="http://www.w3.org/2000/svg" xmlns:xlink="http://www.w3.org/1999/xlink" x="0px" y="0px"
	 viewBox="0 0 464 464" style="enable-background:new 0 0 464 464;" xml:space="preserve">
<g>
	<polygon style="fill:#DCC8B4;" points="272,254.249 272,216 280,216 280,200 272,200 256,200 240,200 224,200 208,200 192,200 
		184,200 184,216 192,216 192,254.249 232,230.719 	"/>
	<path style="fill:#F0E1D2;" d="M208,160v-8c0-4.418,3.582-8,8-8s8,3.582,8,8v8v40h16v-40v-8c0-4.418,3.582-8,8-8s8,3.582,8,8v8v40
		h16v-72h-80v72h16V160z"/>
	<path style="fill:#4B6487;" d="M224,152c0-4.418-3.582-8-8-8s-8,3.582-8,8v8h16V152z"/>
	<path style="fill:#4B6487;" d="M256,152c0-4.418-3.582-8-8-8s-8,3.582-8,8v8h16V152z"/>
	<path style="fill:#F0E1D2;" d="M232,249.281l-120,70.587V448h80v-80h-8v-16h96v16h-8v80h80V319.868L232,249.281z M144,392v40h-16
		v-40v-24c0-4.418,3.582-8,8-8s8,3.582,8,8V392z M176,392v40h-16v-40v-24c0-4.418,3.582-8,8-8s8,3.582,8,8V392z M320,392v-24
		c0-4.418,3.582-8,8-8s8,3.582,8,8v24v40h-16V392z M288,392v-24c0-4.418,3.582-8,8-8s8,3.582,8,8v24v40h-16V392z M256,304h-16v32
		h-16v-32h-16v-16h16v-16h16v16h16V304z"/>
	<polygon style="fill:#DCC8B4;" points="280,128 280,112 216,112 184,112 184,128 192,128 272,128 	"/>
	<path style="fill:#00A59B;" d="M280,112l-11.994-11.994c-2.635-2.635-4.62-5.847-5.798-9.381L232,0l-16,112H280z"/>
	<path style="fill:#4B90A0;" d="M232,0l-21.75,86.999c-1.448,5.792-5.003,10.836-9.971,14.148L184,112h32L232,0z"/>
	<path style="fill:#A59182;" d="M256,400c0-13.255-10.745-24-24-24s-24,10.745-24,24v40h48V400z"/>
	<path style="fill:#4B6487;" d="M168,360c-4.418,0-8,3.582-8,8v24h16v-24C176,363.582,172.418,360,168,360z"/>
	<path style="fill:#4B6487;" d="M136,360c-4.418,0-8,3.582-8,8v24h16v-24C144,363.582,140.418,360,136,360z"/>
	<path style="fill:#4B6487;" d="M336,368c0-4.418-3.582-8-8-8s-8,3.582-8,8v24h16V368z"/>
	<path style="fill:#4B6487;" d="M304,368c0-4.418-3.582-8-8-8s-8,3.582-8,8v24h16V368z"/>
	<polygon style="fill:#4B90A0;" points="372.055,313.105 272,254.249 232,230.719 192,254.249 91.945,313.105 100.055,326.895 
		112,319.868 232,249.281 352,319.868 363.945,326.895 	"/>
	<polygon style="fill:#F0E1D2;" points="256,440 208,440 200,440 194.667,448 184,464 280,464 269.333,448 264,440 	"/>
	<polygon style="fill:#FFFFFF;" points="240,272 224,272 224,288 208,288 208,304 224,304 224,336 240,336 240,304 256,304 256,288 
		240,288 	"/>
	<rect x="128" y="392" style="fill:#4B82A0;" width="16" height="40"/>
	<rect x="160" y="392" style="fill:#4B82A0;" width="16" height="40"/>
	<rect x="208" y="160" style="fill:#4B82A0;" width="16" height="40"/>
	<rect x="240" y="160" style="fill:#4B82A0;" width="16" height="40"/>
	<rect x="288" y="392" style="fill:#4B82A0;" width="16" height="40"/>
	<rect x="320" y="392" style="fill:#4B82A0;" width="16" height="40"/>
	<path style="fill:#DCC8B4;" d="M280,368v-16h-96v16h8v80h2.667l5.333-8h8v-40c0-13.255,10.745-24,24-24s24,10.745,24,24v40h8
		l5.333,8H272v-80H280z"/>
</g>
<g>
</g>
<g>
</g>
<g>
</g>
<g>
</g>
<g>
</g>
<g>
</g>
<g>
</g>
<g>
</g>
<g>
</g>
<g>
</g>
<g>
</g>
<g>
</g>
<g>
</g>
<g>
</g>
<g>
</g>
</svg>
