<?xml version="1.0" encoding="iso-8859-1"?>
<!-- Generator: Adobe Illustrator 19.0.0, SVG Export Plug-In . SVG Version: 6.00 Build 0)  -->
<svg version="1.1" id="Capa_1" xmlns="http://www.w3.org/2000/svg" xmlns:xlink="http://www.w3.org/1999/xlink" x="0px" y="0px"
	 viewBox="0 0 464 464" style="enable-background:new 0 0 464 464;" xml:space="preserve">
<g>
	<path style="fill:#6E6469;" d="M152.069,75.277c0.92-0.452,1.87-0.844,2.832-1.206C153.938,74.433,152.988,74.825,152.069,75.277z"
		/>
	<path style="fill:#6E6469;" d="M309.268,74.131c0.904,0.347,1.797,0.72,2.663,1.146C311.065,74.851,310.173,74.478,309.268,74.131z
		"/>
	<path style="fill:#6E6469;" d="M432,136h-76.912c-6.669,0-12.639-4.137-14.981-10.382L332,104H132l-8.107,21.618
		c-2.342,6.245-8.312,10.382-14.981,10.382H88H40h-8c-17.673,0-32,14.327-32,32v176c0,17.673,14.327,32,32,32h138.002
		C130.644,354.166,104,312.198,104,264c0-70.692,57.308-128,128-128s128,57.308,128,128c0,48.198-26.644,90.166-66.002,112H432
		c17.673,0,32-14.327,32-32V168C464,150.327,449.673,136,432,136z M72,344c0,4.418-3.582,8-8,8s-8-3.582-8-8V168
		c0-4.418,3.582-8,8-8s8,3.582,8,8V344z M408,248c-6.627,0-12-5.373-12-12c0-6.627,5.373-12,12-12s12,5.373,12,12
		C420,242.627,414.627,248,408,248z M408,208c-13.255,0-24-10.745-24-24s10.745-24,24-24s24,10.745,24,24S421.255,208,408,208z"/>
	<path style="fill:#7D787D;" d="M360,264c0-70.692-57.308-128-128-128s-128,57.308-128,128c0,48.198,26.644,90.166,66.002,112
		c18.369,10.19,39.504,16,61.998,16s43.629-5.81,61.998-16C333.356,354.166,360,312.198,360,264z M232,360
		c-53.019,0-96-42.981-96-96s42.981-96,96-96s96,42.981,96,96S285.019,360,232,360z"/>
	<path style="fill:#5A96A0;" d="M232,168c-53.019,0-96,42.981-96,96s42.981,96,96,96s96-42.981,96-96S285.019,168,232,168z M296,304
		c0,13.255-10.745,24-24,24c-5.603,0-10.753-1.925-14.837-5.143C249.438,326.164,240.935,328,232,328c-35.346,0-64-28.654-64-64
		c0-12.254,3.449-23.7,9.422-33.43c-0.906-2.006-1.422-4.226-1.422-6.57c0-8.837,7.163-16,16-16c2.344,0,4.563,0.516,6.57,1.422
		C208.3,203.449,219.746,200,232,200c35.346,0,64,28.654,64,64c0,8.935-1.836,17.438-5.143,25.163
		C294.075,293.247,296,298.397,296,304z"/>
	<path style="fill:#4A404D;" d="M232,200c-12.254,0-23.7,3.449-33.43,9.422c5.557,2.508,9.43,8.086,9.43,14.578
		c0,8.837-7.163,16-16,16c-6.492,0-12.07-3.874-14.578-9.43C171.449,240.3,168,251.746,168,264c0,35.346,28.654,64,64,64
		c8.935,0,17.438-1.836,25.163-5.143C251.585,318.462,248,311.652,248,304c0-13.255,10.745-24,24-24
		c7.652,0,14.462,3.585,18.857,9.163C294.164,281.438,296,272.935,296,264C296,228.654,267.346,200,232,200z"/>
	<path style="fill:#FFFFFF;" d="M272,280c-13.255,0-24,10.745-24,24c0,7.652,3.585,14.462,9.163,18.857
		C261.247,326.075,266.397,328,272,328c13.255,0,24-10.745,24-24c0-5.603-1.925-10.753-5.143-14.837
		C286.462,283.585,279.652,280,272,280z"/>
	<path style="fill:#FFFFFF;" d="M192,240c8.837,0,16-7.163,16-16c0-6.492-3.874-12.07-9.43-14.578
		c-2.006-0.906-4.226-1.422-6.57-1.422c-8.837,0-16,7.163-16,16c0,2.344,0.516,4.563,1.422,6.57C179.93,236.126,185.508,240,192,240
		z"/>
	<path style="fill:#5F555A;" d="M64,160c-4.418,0-8,3.582-8,8v176c0,4.418,3.582,8,8,8s8-3.582,8-8V168
		C72,163.582,68.418,160,64,160z"/>
	<circle style="fill:#7D787D;" cx="408" cy="184" r="24"/>
	<circle style="fill:#5F555A;" cx="408" cy="236" r="12"/>
	<path style="fill:#5F555A;" d="M332,104l-4.213-11.236c-2.927-7.806-8.689-13.966-15.855-17.487
		c-0.866-0.426-1.759-0.799-2.663-1.146C305.682,72.756,301.819,72,297.824,72h0H166.176h0c-3.932,0-7.736,0.736-11.275,2.07
		c-0.963,0.363-1.913,0.755-2.832,1.206c-7.166,3.522-12.928,9.681-15.855,17.487L132,104l0,0H332L332,104z"/>
	<path style="fill:#5F555A;" d="M88,136c0-8.837-7.163-16-16-16H56c-8.837,0-16,7.163-16,16v0L88,136L88,136z"/>
</g>
<g>
</g>
<g>
</g>
<g>
</g>
<g>
</g>
<g>
</g>
<g>
</g>
<g>
</g>
<g>
</g>
<g>
</g>
<g>
</g>
<g>
</g>
<g>
</g>
<g>
</g>
<g>
</g>
<g>
</g>
</svg>
