<svg xmlns="http://www.w3.org/2000/svg" viewBox="0 0 48 48"><defs><style>.cls-1{fill:#dad7e5;}.cls-2{fill:#edebf2;}.cls-3{fill:#db5669;}.cls-4{fill:#f26674;}</style></defs><title>Chrees in Love</title><g id="Cheers_in_Love" data-name="Cheers in Love"><path class="cls-1" d="M36.75,40.9,33.9,30.28a1,1,0,0,1,1.94-.52l2.85,10.62A1,1,0,0,1,36.75,40.9Z"/><path class="cls-1" d="M38.9,27.1a7,7,0,0,1-12.6-2L24,16.37c3.18-.84.44-.11,13.52-3.62l2.33,8.69A7,7,0,0,1,38.9,27.1Z"/><path class="cls-2" d="M38.9,27.1a7,7,0,0,1-10.6-4c-.59-2.23-.17-.66-2-7.33l11.15-3,2.33,8.69A7,7,0,0,1,38.9,27.1Z"/><path class="cls-3" d="M34.59,29a6,6,0,0,1-7.41-4.28l-1.09-4c5.1,1.9,7.37,2.51,12.81,1A6,6,0,0,1,34.59,29Z"/><path class="cls-4" d="M36.46,28.11a7,7,0,0,1-8.16-5l-.47-1.77a16.22,16.22,0,0,0,11.07.39A6,6,0,0,1,36.46,28.11Z"/><path class="cls-1" d="M43.32,42.25c.43,1.6-1.38,3.47-4,4.19s-5.18,0-5.61-1.61,1.39-3.47,4.06-4.19S42.89,40.65,43.32,42.25Z"/><path class="cls-1" d="M11.25,40.9,14.1,30.28a1,1,0,0,0-1.94-.52L9.31,40.38A1,1,0,0,0,11.25,40.9Z"/><path class="cls-1" d="M24,16.37l-2.33,8.7A7,7,0,0,1,8.18,21.44l2.33-8.69Z"/><path class="cls-2" d="M24,16.37l-2.33,8.7a7,7,0,0,1-3.12,4.16,7,7,0,0,1-7.4-8.79l1.88-7Z"/><path class="cls-3" d="M13.41,29a6,6,0,0,0,7.41-4.28l1.09-4c-5.1,1.9-7.37,2.51-12.81,1A6,6,0,0,0,13.41,29Z"/><path class="cls-4" d="M21.91,20.65l-1.09,4A6,6,0,0,1,16.24,29l-.11,0a7,7,0,0,1-5.19-6.87C15.73,23.13,18.86,21.79,21.91,20.65Z"/><path class="cls-1" d="M4.68,42.25c-.43,1.6,1.38,3.47,4.05,4.19s5.18,0,5.61-1.61S13,41.36,10.28,40.64,5.11,40.65,4.68,42.25Z"/><path class="cls-3" d="M29,4c0,1.66-.86,2.13-5,6.24C19.75,6,19.83,6.09,19.77,6A3,3,0,0,1,22,1a3.08,3.08,0,0,1,2,.77A3.07,3.07,0,0,1,26,1,3,3,0,0,1,29,4Z"/><path class="cls-4" d="M29,4c0,1.6-.87,2.11-3.61,4.86C22,5.45,21,4.88,21,3.23A2.94,2.94,0,0,1,22,1a2.94,2.94,0,0,1,2,.77A3.09,3.09,0,0,1,26,1,3,3,0,0,1,29,4Z"/></g></svg>