<?xml version="1.0" encoding="iso-8859-1"?>
<!-- Generator: Adobe Illustrator 19.0.0, SVG Export Plug-In . SVG Version: 6.00 Build 0)  -->
<svg version="1.1" id="Capa_1" xmlns="http://www.w3.org/2000/svg" xmlns:xlink="http://www.w3.org/1999/xlink" x="0px" y="0px"
	 viewBox="0 0 463.994 463.994" style="enable-background:new 0 0 463.994 463.994;" xml:space="preserve">
<g>
	<path style="fill:#DEE1E9;" d="M415.994,112c0-5.919,3.222-11.074,8-13.842v-17.15c-13.802,3.552-24,16.081-24,30.992
		c0,14.911,10.198,27.44,24,30.992v-17.15C419.217,123.074,415.994,117.919,415.994,112z"/>
	<path style="fill:#DEE1E9;" d="M463.994,112c0-14.911-10.198-27.44-24-30.992v17.15c4.778,2.768,8,7.923,8,13.842
		s-3.222,11.074-8,13.842v17.15C453.796,139.44,463.994,126.911,463.994,112z"/>
	<path style="fill:#5F555A;" d="M332.117,140.754c0.898,0.958,1.792,1.918,2.667,2.89
		C333.909,142.672,333.016,141.712,332.117,140.754z"/>
	<path style="fill:#5F555A;" d="M327.759,136.235c1.205,1.205,2.39,2.424,3.557,3.653
		C330.149,138.659,328.964,137.441,327.759,136.235z"/>
	<path style="fill:#5F555A;" d="M320.351,129.21c0.972,0.874,1.932,1.769,2.89,2.667
		C322.283,130.979,321.322,130.085,320.351,129.21z"/>
	<path style="fill:#5F555A;" d="M324.106,132.679c1.229,1.166,2.447,2.351,3.653,3.557
		C326.553,135.03,325.335,133.846,324.106,132.679z"/>
	<path style="fill:#5F555A;" d="M345.051,213.132l7.356-2.829c-7.785-20.333-19.461-39.502-35.217-56.235
		c-0.124-0.132-0.244-0.266-0.369-0.398c-1.05-1.108-2.118-2.206-3.204-3.292s-2.184-2.154-3.292-3.204
		c-0.132-0.125-0.266-0.245-0.398-0.369c-16.733-15.756-35.902-27.432-56.235-35.217l-2.829,7.356
		c-58.63-22.452-127.648-10.094-174.833,37.091S16.486,272.237,38.938,330.868l-7.355,2.829
		c7.785,20.334,19.462,39.503,35.218,56.237c0.124,0.131,0.243,0.265,0.367,0.397c1.05,1.108,2.118,2.206,3.204,3.292
		s2.184,2.154,3.292,3.204c0.131,0.124,0.265,0.244,0.397,0.367c16.733,15.756,35.903,27.433,56.237,35.218l2.829-7.355
		c47.896,18.341,102.718,13.444,146.913-14.686l-1.198,0.549c-1.556,0.712-3.247,1.081-4.958,1.081h-25.13l16.125-19.568
		c1.147-1.392,2.595-2.505,4.235-3.256l16.402-7.508l1.556,3.422l38.039-17.29C357.832,322.383,364.481,263.871,345.051,213.132z
		 M290.989,370.995c-40.279,40.279-99.198,50.829-149.248,31.663l-8.574,22.293c-19.386-7.423-37.662-18.554-53.616-33.576
		c-0.127-0.12-0.257-0.235-0.384-0.355c-1.057-1.001-2.103-2.019-3.139-3.054s-2.053-2.082-3.054-3.139
		c-0.12-0.127-0.236-0.256-0.355-0.384c-15.021-15.954-26.153-34.23-33.576-53.616l22.293-8.574
		c-19.166-50.05-8.617-108.969,31.663-149.248s99.198-50.829,149.248-31.663l8.574-22.293c19.381,7.421,37.653,18.549,53.605,33.566
		c0.131,0.124,0.265,0.243,0.396,0.367c1.056,1.001,2.102,2.018,3.137,3.053s2.052,2.081,3.053,3.137
		c0.124,0.131,0.243,0.265,0.367,0.396c15.016,15.951,26.144,34.224,33.566,53.605l-22.293,8.574
		C341.818,271.797,331.269,330.716,290.989,370.995z"/>
	<path style="fill:#5F555A;" d="M352.517,210.26c18.852,49.23,14.295,105.437-13.667,151.293l29.438-13.381
		c27.648-64.04,18.777-140.06-26.601-196.412c12.7,15.794,22.522,33.135,29.503,51.318L352.517,210.26z"/>
	<path style="fill:#5F555A;" d="M296.532,398.359l-2.841,1.291l0.337,0.74C294.868,399.722,295.703,399.046,296.532,398.359z"/>
	<path style="fill:#5F555A;" d="M335.498,144.454c0.899,1.011,1.794,2.025,2.668,3.05
		C337.291,146.479,336.398,145.465,335.498,144.454z"/>
	<path style="fill:#5F555A;" d="M338.661,148.096c0.946,1.119,1.883,2.243,2.799,3.378
		C340.544,150.339,339.608,149.215,338.661,148.096z"/>
	<path style="fill:#5F555A;" d="M316.49,125.828c1.025,0.874,2.039,1.768,3.05,2.668C318.53,127.596,317.515,126.703,316.49,125.828
		z"/>
	<path style="fill:#5F555A;" d="M51.868,403.243c-0.897-0.957-1.79-1.915-2.663-2.885C50.079,401.328,50.972,402.287,51.868,403.243
		z"/>
	<path style="fill:#5F555A;" d="M71.467,421.465c-1.134-0.916-2.258-1.852-3.375-2.797
		C69.209,419.614,70.333,420.549,71.467,421.465z"/>
	<path style="fill:#5F555A;" d="M63.637,414.789c-0.97-0.873-1.929-1.766-2.885-2.663C61.708,413.023,62.666,413.915,63.637,414.789
		z"/>
	<path style="fill:#5F555A;" d="M312.52,122.533c1.135,0.916,2.259,1.853,3.378,2.799
		C314.78,124.386,313.655,123.451,312.52,122.533z"/>
	<path style="fill:#5F555A;" d="M31.471,333.74c-23.547-61.49-10.587-133.874,38.9-183.362
		c49.488-49.488,121.872-62.448,183.362-38.901l7.182-18.674c18.183,6.981,35.524,16.803,51.318,29.503
		C236.84,61.595,126.234,66.232,56.23,136.235c-70.002,70.002-74.64,180.604-13.934,255.998
		c-12.698-15.792-22.518-33.131-29.498-51.312L31.471,333.74z"/>
	<path style="fill:#5F555A;" d="M313.617,393.622c-49.488,49.488-121.872,62.448-183.362,38.901l-7.182,18.674
		c-18.181-6.98-35.52-16.801-51.312-29.498c75.394,60.706,185.997,56.068,255.998-13.934c11.268-11.268,20.83-23.594,28.711-36.65
		l-37.739,17.154C317.068,390.079,315.371,391.868,313.617,393.622z"/>
	<path style="fill:#5F555A;" d="M115.627,195.632c31.075-31.075,76.525-39.212,115.134-24.426l8.615-22.398
		c-47.191-18.071-102.743-8.123-140.719,29.853C60.68,216.638,50.732,272.19,68.803,319.381l22.398-8.615
		C76.415,272.157,84.552,226.707,115.627,195.632z"/>
	<path style="fill:#5F555A;" d="M59.883,411.321c-1.229-1.166-2.447-2.351-3.653-3.557C57.435,408.97,58.654,410.154,59.883,411.321
		z"/>
	<path style="fill:#5F555A;" d="M45.326,395.903c-0.945-1.118-1.882-2.241-2.797-3.375C43.446,393.661,44.38,394.785,45.326,395.903
		z"/>
	<path style="fill:#5F555A;" d="M48.484,399.539c-0.897-1.009-1.789-2.02-2.661-3.043C46.695,397.518,47.586,398.53,48.484,399.539z
		"/>
	<path style="fill:#5F555A;" d="M56.23,407.764c-1.205-1.205-2.39-2.424-3.557-3.653C53.84,405.341,55.024,406.559,56.23,407.764z"
		/>
	<path style="fill:#5F555A;" d="M67.498,418.172c-1.023-0.872-2.034-1.764-3.043-2.661
		C65.464,416.408,66.476,417.299,67.498,418.172z"/>
	<path style="fill:#5F555A;" d="M268.362,348.367c-31.075,31.075-76.525,39.212-115.134,24.426l-8.615,22.398
		c47.191,18.071,102.743,8.123,140.719-29.853s47.924-93.528,29.853-140.719l-22.398,8.615
		C307.574,271.843,299.436,317.293,268.362,348.367z"/>
	<path style="fill:#7D787D;" d="M242.152,209.68c0.012,0.01,0.025,0.019,0.038,0.029c0.973,0.786,1.929,1.603,2.872,2.441
		c0.134,0.119,0.273,0.229,0.407,0.349c1.05,0.945,2.083,1.921,3.094,2.931s1.986,2.044,2.931,3.094
		c0.12,0.134,0.23,0.273,0.349,0.407c0.838,0.944,1.656,1.9,2.441,2.872c0.01,0.012,0.019,0.025,0.029,0.038
		c5.321,6.595,9.428,13.841,12.345,21.44l18.598-7.153c-4.526-11.821-11.314-22.965-20.474-32.692
		c-0.073-0.078-0.143-0.157-0.217-0.234c-0.61-0.644-1.231-1.282-1.862-1.914s-1.27-1.252-1.914-1.862
		c-0.078-0.074-0.157-0.144-0.235-0.218c-9.728-9.159-20.871-15.947-32.691-20.472l0.025-0.064c0,0,0,0,0,0l-7.178,18.662
		C228.311,200.252,235.556,204.359,242.152,209.68z"/>
	<path style="fill:#7D787D;" d="M288.309,170.396c0.902,0.856,1.796,1.724,2.681,2.609s1.753,1.779,2.609,2.681
		c0.099,0.104,0.194,0.211,0.292,0.315c12.838,13.616,22.424,29.195,28.762,45.746l22.293-8.574
		c-7.421-19.381-18.549-37.653-33.566-53.605c-0.124-0.131-0.243-0.265-0.367-0.396c-1.001-1.056-2.018-2.102-3.053-3.137
		s-2.081-2.052-3.137-3.053c-0.131-0.124-0.265-0.243-0.396-0.367c-15.951-15.016-34.224-26.144-53.605-33.566l-8.574,22.293
		c16.55,6.338,32.13,15.924,45.746,28.762C288.098,170.203,288.204,170.297,288.309,170.396z"/>
	<path style="fill:#7D787D;" d="M288.082,181.502c-0.098-0.104-0.193-0.211-0.292-0.315c-0.806-0.85-1.625-1.692-2.458-2.526
		s-1.675-1.652-2.526-2.458c-0.104-0.099-0.211-0.193-0.315-0.292c-12.839-12.087-27.548-21.046-43.149-27.019l0.033-0.085l0,0
		l-8.615,22.398c12.762,4.887,24.775,12.278,35.276,22.176c0.086,0.081,0.173,0.159,0.259,0.24c0.695,0.66,1.385,1.329,2.066,2.011
		s1.351,1.371,2.011,2.066c0.081,0.085,0.159,0.173,0.24,0.259c9.897,10.501,17.288,22.514,22.176,35.276l22.398-8.615l0,0
		l-0.085,0.033C309.128,209.05,300.17,194.342,288.082,181.502z"/>
	<path style="fill:#7D787D;" d="M253.734,111.477c20.329,7.785,39.466,19.56,56.192,35.328c0.132,0.124,0.266,0.244,0.398,0.369
		c1.108,1.051,2.206,2.118,3.292,3.204s2.153,2.185,3.204,3.292c0.125,0.132,0.245,0.266,0.369,0.398
		c15.768,16.726,27.542,35.863,35.328,56.192l18.674-7.182c-6.981-18.183-16.803-35.524-29.503-51.318
		c-0.076-0.095-0.151-0.191-0.227-0.286c-0.916-1.135-1.853-2.259-2.799-3.378c-0.166-0.197-0.328-0.396-0.495-0.592
		c-0.874-1.025-1.768-2.039-2.668-3.05c-0.24-0.269-0.473-0.542-0.714-0.811c-0.874-0.972-1.769-1.932-2.667-2.89
		c-0.269-0.287-0.531-0.579-0.802-0.865c-1.166-1.229-2.351-2.447-3.557-3.653s-2.424-2.39-3.653-3.557
		c-0.286-0.271-0.578-0.533-0.865-0.802c-0.958-0.898-1.918-1.792-2.89-2.667c-0.268-0.241-0.541-0.474-0.811-0.714
		c-1.011-0.899-2.025-1.794-3.05-2.668c-0.196-0.167-0.395-0.329-0.592-0.495c-1.119-0.946-2.243-1.883-3.378-2.799
		c-0.095-0.077-0.191-0.151-0.286-0.227c-15.794-12.7-33.135-22.522-51.318-29.503L253.734,111.477z"/>
	<path style="fill:#7D787D;" d="M141.799,334.291c-0.973-0.786-1.929-1.603-2.872-2.441c-0.134-0.119-0.273-0.229-0.407-0.349
		c-1.05-0.945-2.083-1.921-3.094-2.931s-1.986-2.044-2.931-3.094c-0.12-0.134-0.23-0.273-0.349-0.407
		c-0.838-0.944-1.656-1.9-2.441-2.872c-0.01-0.012-0.019-0.025-0.029-0.038c-5.321-6.595-9.428-13.841-12.345-21.44l-18.597,7.153
		c4.525,11.821,11.313,22.964,20.471,32.692c0.073,0.078,0.144,0.157,0.218,0.235c0.61,0.644,1.231,1.282,1.862,1.914
		s1.27,1.252,1.914,1.862c0.077,0.073,0.156,0.143,0.233,0.216c9.728,9.16,20.873,15.948,32.694,20.474l7.153-18.597
		c-7.599-2.918-14.845-7.024-21.44-12.345C141.825,334.31,141.812,334.301,141.799,334.291z"/>
	<path style="fill:#7D787D;" d="M130.255,432.523c-20.33-7.785-39.468-19.56-56.194-35.329c-0.131-0.124-0.265-0.243-0.397-0.367
		c-1.108-1.051-2.206-2.118-3.292-3.204s-2.153-2.185-3.204-3.292c-0.124-0.131-0.244-0.265-0.367-0.397
		c-15.769-16.726-27.543-35.864-35.329-56.194l-18.674,7.182c6.98,18.181,16.801,35.52,29.498,51.312
		c0.078,0.098,0.155,0.196,0.233,0.294c0.916,1.134,1.852,2.258,2.797,3.375c0.167,0.197,0.329,0.396,0.496,0.593
		c0.872,1.023,1.764,2.034,2.661,3.043c0.242,0.272,0.478,0.548,0.721,0.819c0.873,0.97,1.766,1.929,2.663,2.885
		c0.27,0.288,0.532,0.581,0.805,0.868c1.166,1.229,2.351,2.447,3.557,3.653s2.424,2.39,3.653,3.557
		c0.287,0.272,0.58,0.535,0.868,0.805c0.957,0.897,1.915,1.79,2.885,2.663c0.271,0.244,0.547,0.479,0.819,0.721
		c1.009,0.897,2.02,1.789,3.043,2.661c0.196,0.168,0.396,0.33,0.593,0.496c1.118,0.945,2.241,1.882,3.375,2.797
		c0.097,0.079,0.196,0.155,0.294,0.233c15.792,12.698,33.131,22.518,51.312,29.498L130.255,432.523z"/>
	<path style="fill:#7D787D;" d="M95.68,373.604c-0.902-0.856-1.796-1.724-2.681-2.609s-1.753-1.779-2.609-2.681
		c-0.099-0.104-0.194-0.211-0.292-0.315c-12.838-13.616-22.424-29.195-28.762-45.746l-22.293,8.574
		c7.423,19.386,18.554,37.662,33.576,53.616c0.12,0.127,0.235,0.257,0.355,0.384c1.001,1.057,2.019,2.103,3.054,3.139
		s2.082,2.053,3.139,3.054c0.127,0.12,0.256,0.236,0.384,0.355c15.954,15.021,34.23,26.153,53.616,33.576l8.574-22.293
		c-16.55-6.338-32.13-15.924-45.746-28.762C95.891,373.798,95.784,373.703,95.68,373.604z"/>
	<path style="fill:#7D787D;" d="M117.952,350.618c-0.086-0.081-0.173-0.159-0.259-0.24c-0.695-0.66-1.385-1.329-2.066-2.011
		s-1.351-1.371-2.011-2.066c-0.081-0.085-0.159-0.173-0.24-0.259c-9.897-10.501-17.288-22.514-22.176-35.276l-22.398,8.615l0,0
		l0.085-0.033c5.973,15.601,14.931,30.309,27.019,43.149c0.098,0.104,0.193,0.211,0.292,0.315c0.806,0.85,1.625,1.692,2.458,2.526
		s1.675,1.652,2.526,2.458c0.104,0.099,0.211,0.193,0.315,0.292c12.839,12.087,27.548,21.046,43.149,27.019l-0.033,0.085l0,0
		l8.615-22.398C140.466,367.906,128.452,360.515,117.952,350.618z"/>
	<path style="fill:#4A404D;" d="M266.626,243.295l-22.367,8.603c7.686,20.019,3.474,43.559-12.668,59.7
		c-16.142,16.142-39.681,20.354-59.7,12.668l-8.603,22.366c-7.599-2.918-14.852-7.007-21.453-12.312
		c6.595,5.321,13.841,9.428,21.44,12.345c28.599,10.981,62.227,4.963,85.286-18.097s29.077-56.687,18.097-85.286
		c-2.918-7.599-7.024-14.845-12.345-21.44C259.62,228.443,263.709,235.696,266.626,243.295z"/>
	<path style="fill:#4A404D;" d="M251.844,218.932c0.837,0.945,1.658,1.899,2.441,2.872
		C253.499,220.832,252.682,219.876,251.844,218.932z"/>
	<path style="fill:#4A404D;" d="M242.189,209.709c0.974,0.784,1.928,1.604,2.872,2.441
		C244.118,211.312,243.162,210.495,242.189,209.709z"/>
	<path style="fill:#4A404D;" d="M245.469,212.5c1.051,0.944,2.083,1.92,3.094,2.931C247.552,214.421,246.519,213.445,245.469,212.5z
		"/>
	<path style="fill:#4A404D;" d="M248.563,215.431c1.011,1.011,1.987,2.043,2.931,3.094
		C250.549,217.475,249.574,216.442,248.563,215.431z"/>
	<path style="fill:#4A404D;" d="M117.362,300.705l22.367-8.603c-7.686-20.019-3.474-43.559,12.668-59.7s39.681-20.354,59.7-12.668
		l8.603-22.367c7.599,2.918,14.852,7.007,21.452,12.312c-6.595-5.321-13.841-9.428-21.44-12.345
		c-28.599-10.981-62.227-4.963-85.286,18.097s-29.077,56.687-18.097,85.286c2.918,7.599,7.024,14.845,12.345,21.44
		C124.369,315.557,120.28,308.304,117.362,300.705z"/>
	<path style="fill:#4A404D;" d="M135.426,328.569c-1.011-1.011-1.987-2.043-2.931-3.094
		C133.44,326.525,134.415,327.558,135.426,328.569z"/>
	<path style="fill:#4A404D;" d="M138.52,331.5c-1.051-0.944-2.083-1.92-3.094-2.931C136.437,329.579,137.47,330.555,138.52,331.5z"
		/>
	<path style="fill:#4A404D;" d="M141.799,334.291c-0.974-0.784-1.928-1.604-2.872-2.441
		C139.871,332.688,140.826,333.505,141.799,334.291z"/>
	<path style="fill:#4A404D;" d="M132.145,325.068c-0.837-0.945-1.658-1.899-2.441-2.872
		C130.489,323.168,131.307,324.124,132.145,325.068z"/>
	<path style="fill:#5F555A;" d="M212.097,219.734c7.104,2.727,13.768,6.94,19.496,12.668c5.728,5.728,9.94,12.392,12.668,19.496
		l22.367-8.603c-2.918-7.599-7.007-14.852-12.312-21.452c-0.01-0.012-0.019-0.025-0.029-0.038c-0.784-0.974-1.604-1.928-2.441-2.872
		c-0.119-0.134-0.229-0.273-0.349-0.407c-0.944-1.051-1.92-2.083-2.931-3.094s-2.043-1.987-3.094-2.931
		c-0.134-0.12-0.273-0.23-0.407-0.349c-0.945-0.837-1.899-1.658-2.872-2.441c-0.012-0.01-0.025-0.019-0.038-0.029
		c-6.6-5.306-13.853-9.394-21.452-12.312L212.097,219.734z"/>
	<path style="fill:#5F555A;" d="M139.729,292.102l-22.367,8.603c2.918,7.599,7.007,14.852,12.312,21.453
		c0.01,0.012,0.019,0.025,0.029,0.038c0.784,0.974,1.604,1.928,2.441,2.872c0.119,0.134,0.229,0.273,0.349,0.407
		c0.944,1.051,1.92,2.083,2.931,3.094s2.043,1.987,3.094,2.931c0.134,0.12,0.273,0.23,0.407,0.349
		c0.945,0.837,1.899,1.658,2.872,2.441c0.012,0.01,0.025,0.019,0.038,0.029c6.6,5.305,13.853,9.394,21.453,12.312l8.603-22.366
		c-7.104-2.727-13.768-6.94-19.496-12.668S142.456,299.206,139.729,292.102z"/>
	<path style="fill:#E86464;" d="M212.097,219.734c-20.019-7.686-43.559-3.474-59.7,12.668s-20.354,39.681-12.668,59.7
		c2.727,7.104,6.94,13.768,12.668,19.496s12.392,9.94,19.496,12.668c20.019,7.686,43.559,3.474,59.7-12.668
		c16.142-16.142,20.354-39.681,12.668-59.7c-2.727-7.104-6.94-13.768-12.668-19.496C225.865,226.674,219.2,222.462,212.097,219.734z
		 M203.308,283.314c-6.248,6.248-16.379,6.248-22.627,0c-6.248-6.248-6.248-16.379,0-22.627c6.248-6.248,16.379-6.248,22.627,0
		S209.556,277.065,203.308,283.314z"/>
	<path style="fill:#4A404D;" d="M292.719,233.26l-7.397,2.845c13.69,35.75,6.155,77.834-22.617,106.606
		s-70.855,36.307-106.606,22.617l-2.845,7.397c-12.764-4.887-24.798-12.217-35.303-22.106c10.501,9.897,22.514,17.288,35.276,22.176
		c38.61,14.786,84.06,6.649,115.134-24.426c31.075-31.075,39.212-76.525,24.426-115.134c-4.887-12.762-12.278-24.775-22.176-35.276
		C280.502,208.462,287.832,220.496,292.719,233.26z"/>
	<path style="fill:#4A404D;" d="M115.627,195.632c-31.075,31.075-39.212,76.525-24.426,115.134
		c4.887,12.762,12.278,24.775,22.176,35.276c-9.89-10.505-17.219-22.538-22.106-35.303l7.397-2.845
		c-13.69-35.75-6.155-77.834,22.617-106.606c28.772-28.772,70.856-36.307,106.606-22.617c0,0,0,0,0,0l2.845-7.397
		c12.764,4.887,24.798,12.217,35.303,22.106c-10.501-9.897-22.514-17.288-35.276-22.176
		C192.152,156.42,146.701,164.558,115.627,195.632z"/>
	<path style="fill:#4A404D;" d="M260.556,199.209c0.078,0.073,0.157,0.144,0.235,0.218
		C260.713,199.353,260.634,199.282,260.556,199.209z"/>
	<path style="fill:#4A404D;" d="M264.567,203.203c0.073,0.077,0.144,0.156,0.217,0.234
		C264.711,203.359,264.641,203.28,264.567,203.203z"/>
	<path style="fill:#4A404D;" d="M268.362,195.632c0.682,0.682,1.352,1.371,2.011,2.066
		C269.713,197.003,269.044,196.314,268.362,195.632z"/>
	<path style="fill:#4A404D;" d="M266.296,193.622c0.696,0.659,1.385,1.329,2.066,2.011
		C267.68,194.951,266.991,194.281,266.296,193.622z"/>
	<path style="fill:#4A404D;" d="M115.627,348.367c-0.682-0.682-1.352-1.371-2.011-2.066
		C114.275,346.997,114.945,347.686,115.627,348.367z"/>
	<path style="fill:#4A404D;" d="M117.693,350.378c-0.695-0.659-1.385-1.329-2.066-2.011
		C116.309,349.049,116.998,349.719,117.693,350.378z"/>
	<path style="fill:#4A404D;" d="M123.43,344.789c-0.077-0.073-0.156-0.143-0.233-0.216
		C123.274,344.646,123.353,344.716,123.43,344.789z"/>
	<path style="fill:#4A404D;" d="M119.421,340.797c-0.074-0.078-0.144-0.157-0.218-0.235
		C119.277,340.64,119.347,340.719,119.421,340.797z"/>
	<path style="fill:#4A404D;" d="M288.309,170.396c0.902,0.855,1.796,1.724,2.681,2.609
		C290.105,172.121,289.211,171.252,288.309,170.396z"/>
	<path style="fill:#4A404D;" d="M290.989,173.005c0.884,0.884,1.754,1.778,2.609,2.681
		C292.742,174.784,291.874,173.889,290.989,173.005z"/>
	<path style="fill:#4A404D;" d="M293.89,176.001c12.828,13.622,22.334,29.227,28.672,45.78l-7.377,2.838l0,0
		c18.071,47.191,8.123,102.743-29.853,140.719s-93.528,47.924-140.719,29.853l0,0l-2.838,7.377
		c-16.553-6.338-32.158-15.844-45.78-28.672c13.616,12.838,29.195,22.424,45.746,28.762c50.05,19.166,108.969,8.617,149.248-31.663
		s50.829-99.198,31.663-149.248C316.314,205.197,306.728,189.617,293.89,176.001z"/>
	<path style="fill:#4A404D;" d="M282.492,175.912c0.104,0.098,0.211,0.193,0.315,0.292
		C282.703,176.105,282.596,176.01,282.492,175.912z"/>
	<path style="fill:#4A404D;" d="M287.79,181.187c0.099,0.104,0.193,0.211,0.292,0.315
		C287.984,181.398,287.889,181.292,287.79,181.187z"/>
	<path style="fill:#4A404D;" d="M61.426,322.219l7.377-2.838l0,0C50.732,272.19,60.68,216.638,98.656,178.662
		c37.976-37.976,93.528-47.924,140.719-29.853l0,0l2.838-7.377c16.553,6.338,32.158,15.844,45.78,28.672
		c-13.616-12.838-29.195-22.424-45.746-28.762c-50.05-19.166-108.969-8.617-149.248,31.663S42.17,272.203,61.337,322.253
		c6.338,16.55,15.924,32.13,28.762,45.746C77.27,354.377,67.764,338.772,61.426,322.219z"/>
	<path style="fill:#4A404D;" d="M101.182,367.796c0.104,0.099,0.211,0.194,0.315,0.292
		C101.392,367.989,101.286,367.895,101.182,367.796z"/>
	<path style="fill:#4A404D;" d="M95.906,362.497c0.098,0.104,0.193,0.211,0.292,0.315C96.1,362.708,96.005,362.602,95.906,362.497z"
		/>
	<path style="fill:#4A404D;" d="M95.68,373.604c-0.902-0.855-1.796-1.724-2.681-2.609C93.884,371.879,94.778,372.748,95.68,373.604z
		"/>
	<path style="fill:#4A404D;" d="M92.999,370.995c-0.884-0.884-1.754-1.778-2.609-2.681
		C91.246,369.216,92.115,370.111,92.999,370.995z"/>
	<path style="fill:#4A404D;" d="M295.374,403.351l-15.335,7.02c-44.195,28.13-99.017,33.027-146.913,14.686l-2.829,7.355
		c-20.334-7.785-39.503-19.462-56.237-35.218c16.726,15.769,35.864,27.544,56.194,35.329
		c61.49,23.547,133.874,10.587,183.362-38.901c1.754-1.754,3.452-3.543,5.114-5.354l-22.198,10.09
		c-0.829,0.687-1.664,1.363-2.504,2.031L295.374,403.351z"/>
	<path style="fill:#4A404D;" d="M31.582,333.697l7.355-2.829c-22.452-58.63-10.094-127.648,37.091-174.833
		s116.203-59.543,174.833-37.091l2.829-7.356c20.333,7.785,39.503,19.461,56.235,35.217c-16.726-15.768-35.863-27.542-56.192-35.328
		C192.244,87.93,119.86,100.89,70.372,150.378C20.884,199.866,7.924,272.25,31.471,333.74c7.785,20.33,19.56,39.468,35.329,56.194
		C51.044,373.2,39.367,354.031,31.582,333.697z"/>
	<path style="fill:#4A404D;" d="M352.517,210.26c-7.785-20.329-19.56-39.466-35.328-56.192
		c15.755,16.733,27.432,35.902,35.217,56.235l-7.356,2.829c19.43,50.739,12.781,109.251-19.941,154.667l13.741-6.246
		C366.812,315.697,371.37,259.49,352.517,210.26z"/>
	<path style="fill:#4A404D;" d="M311.013,159.172c0.124,0.131,0.243,0.265,0.367,0.396
		C311.256,159.437,311.137,159.303,311.013,159.172z"/>
	<path style="fill:#4A404D;" d="M304.427,152.614c0.131,0.124,0.265,0.243,0.396,0.367
		C304.692,152.857,304.558,152.738,304.427,152.614z"/>
	<path style="fill:#4A404D;" d="M313.617,150.378c1.086,1.086,2.154,2.184,3.204,3.292
		C315.77,152.562,314.703,151.464,313.617,150.378z"/>
	<path style="fill:#4A404D;" d="M310.324,147.173c1.108,1.05,2.206,2.118,3.292,3.204
		C312.53,149.291,311.432,148.224,310.324,147.173z"/>
	<path style="fill:#4A404D;" d="M79.551,391.375c-0.127-0.12-0.257-0.235-0.384-0.355C79.294,391.14,79.424,391.256,79.551,391.375z
		"/>
	<path style="fill:#4A404D;" d="M70.372,393.622c-1.086-1.086-2.154-2.184-3.204-3.292
		C68.219,391.438,69.286,392.536,70.372,393.622z"/>
	<path style="fill:#4A404D;" d="M73.664,396.827c-1.108-1.05-2.206-2.118-3.292-3.204C71.458,394.709,72.556,395.776,73.664,396.827
		z"/>
	<path style="fill:#4A404D;" d="M72.974,384.827c-0.12-0.127-0.236-0.256-0.355-0.384C72.739,384.57,72.854,384.7,72.974,384.827z"
		/>
	<circle style="fill:#4A404D;" cx="191.994" cy="272" r="16"/>
	<path style="fill:#5F555A;" d="M101.497,368.088c-0.104-0.098-0.211-0.193-0.315-0.292c-0.85-0.806-1.692-1.625-2.526-2.458
		s-1.652-1.675-2.458-2.526c-0.099-0.104-0.194-0.211-0.292-0.315c-12.087-12.839-21.046-27.548-27.019-43.149l-0.085,0.033
		l-7.377,2.838c6.338,16.553,15.844,32.158,28.672,45.78c0.098,0.105,0.193,0.211,0.292,0.315c0.855,0.902,1.724,1.796,2.609,2.681
		s1.778,1.754,2.681,2.609c0.104,0.099,0.211,0.194,0.315,0.292c13.622,12.828,29.227,22.334,45.78,28.672l2.838-7.377l0.033-0.085
		C129.044,389.134,114.336,380.175,101.497,368.088z"/>
	<path style="fill:#5F555A;" d="M290.989,173.005c-0.884-0.884-1.778-1.754-2.681-2.609c-0.104-0.099-0.211-0.194-0.315-0.292
		c-13.621-12.828-29.227-22.334-45.78-28.672l-2.838,7.377l-0.033,0.085c15.601,5.973,30.309,14.931,43.149,27.019
		c0.104,0.098,0.211,0.193,0.315,0.292c0.85,0.806,1.692,1.625,2.526,2.458s1.652,1.675,2.458,2.526
		c0.099,0.104,0.194,0.211,0.292,0.315c12.087,12.839,21.046,27.548,27.019,43.149l0.085-0.033l7.377-2.838
		c-6.338-16.553-15.844-32.158-28.672-45.78c-0.098-0.105-0.193-0.211-0.292-0.315C292.743,174.783,291.874,173.889,290.989,173.005
		z"/>
	<path style="fill:#5F555A;" d="M230.734,171.276l-2.845,7.397l-0.025,0.064c11.82,4.525,22.963,11.313,32.691,20.472
		c0.078,0.073,0.157,0.144,0.235,0.218c0.644,0.61,1.282,1.231,1.914,1.862s1.252,1.27,1.862,1.914
		c0.073,0.077,0.144,0.156,0.217,0.234c9.159,9.728,15.948,20.872,20.474,32.692l-18.598,7.153
		c10.981,28.599,4.963,62.227-18.097,85.286s-56.687,29.077-85.286,18.097l-7.153,18.597c-11.821-4.526-22.966-11.314-32.694-20.474
		c-0.077-0.073-0.156-0.143-0.233-0.216c-0.644-0.61-1.282-1.231-1.914-1.862s-1.252-1.27-1.862-1.914
		c-0.074-0.078-0.145-0.157-0.218-0.235c-9.159-9.728-15.947-20.871-20.471-32.692l18.597-7.153
		c-10.981-28.599-4.963-62.227,18.097-85.286s56.687-29.077,85.286-18.097l7.178-18.662c-35.75-13.691-77.834-6.155-106.606,22.617
		c-28.772,28.772-36.307,70.855-22.617,106.606l-7.397,2.845c4.887,12.764,12.217,24.798,22.106,35.303
		c0.081,0.086,0.159,0.173,0.24,0.259c0.659,0.696,1.329,1.385,2.011,2.066s1.371,1.352,2.066,2.011
		c0.086,0.081,0.173,0.159,0.259,0.24c10.505,9.89,22.538,17.219,35.303,22.106l2.845-7.397
		c35.75,13.69,77.834,6.155,106.606-22.617s36.307-70.855,22.617-106.606l7.397-2.845c-4.887-12.764-12.217-24.798-22.106-35.303
		c-0.081-0.086-0.159-0.173-0.24-0.259c-0.659-0.696-1.329-1.385-2.011-2.066s-1.371-1.352-2.066-2.011
		c-0.085-0.081-0.173-0.159-0.259-0.24C255.532,183.492,243.499,176.163,230.734,171.276z"/>
	<path style="fill:#CACDD2;" d="M431.994,96c2.918,0,5.645,0.794,8,2.158v-17.15V72h-8h-8v9.008v17.15
		C426.35,96.794,429.077,96,431.994,96z"/>
	<path style="fill:#CACDD2;" d="M431.994,128c-2.918,0-5.645-0.794-8-2.158v17.15v148.946c0,18.781-11.043,35.93-28.137,43.703
		l-27.569,12.531l-29.438,13.381l-13.741,6.246l-38.039,17.29l6.62,14.561l2.841-1.291l22.198-10.09l37.739-17.154l46.005-20.911
		c22.793-10.359,37.52-33.227,37.52-58.266V142.992v-17.15C437.639,127.206,434.912,128,431.994,128z"/>
	<path style="fill:#DEE1E9;" d="M269.113,389.176c-1.64,0.751-3.088,1.864-4.235,3.256L248.753,412h25.13
		c1.711,0,3.402-0.369,4.958-1.081l1.198-0.549l15.335-7.02l-1.346-2.961l-0.337-0.74l-6.62-14.561l-1.556-3.422L269.113,389.176z"
		/>
	<path style="fill:#7D787D;" d="M408.426,66.576c0.789,2.319,2.611,4.155,4.92,4.966C411.037,70.731,409.216,68.895,408.426,66.576z
		"/>
	<path style="fill:#7D787D;" d="M413.346,0.458c-2.309,0.811-4.131,2.647-4.92,4.966C409.216,3.105,411.037,1.269,413.346,0.458z"/>
	<path style="fill:#7D787D;" d="M408.036,7.182c0.041-0.407,0.122-0.802,0.223-1.189C408.158,6.38,408.077,6.775,408.036,7.182z"/>
	<path style="fill:#7D787D;" d="M423.994,8v40v16c0,4.418,3.582,8,8,8h8h8c4.418,0,8-3.582,8-8V8c0-4.418-3.582-8-8-8h-16
		C427.576,0,423.994,3.582,423.994,8z"/>
	<path style="fill:#7D787D;" d="M408.258,66.006c-0.1-0.387-0.181-0.781-0.223-1.189C408.077,65.225,408.158,65.62,408.258,66.006z"
		/>
	<path style="fill:#5F555A;" d="M423.994,64V48V8c0-4.418,3.582-8,8-8h-16c-0.93,0-1.818,0.167-2.648,0.458
		c-2.309,0.811-4.131,2.647-4.92,4.966c-0.064,0.187-0.118,0.377-0.168,0.569c-0.1,0.387-0.181,0.781-0.223,1.189
		c-0.027,0.269-0.041,0.542-0.041,0.818v56c0,0.276,0.014,0.549,0.041,0.818c0.041,0.407,0.122,0.802,0.223,1.189
		c0.05,0.193,0.104,0.383,0.168,0.569c0.789,2.319,2.611,4.155,4.92,4.966c0.83,0.292,1.719,0.458,2.648,0.458h8h8
		C427.576,72,423.994,68.418,423.994,64z"/>
	<path style="fill:#7D787D;" d="M423.994,98.158c-4.778,2.768-8,7.923-8,13.842s3.222,11.074,8,13.842
		c2.355,1.364,5.082,2.158,8,2.158s5.645-0.794,8-2.158c4.778-2.768,8-7.923,8-13.842s-3.222-11.074-8-13.842
		c-2.355-1.364-5.082-2.158-8-2.158S426.35,96.794,423.994,98.158z"/>
</g>
<g>
</g>
<g>
</g>
<g>
</g>
<g>
</g>
<g>
</g>
<g>
</g>
<g>
</g>
<g>
</g>
<g>
</g>
<g>
</g>
<g>
</g>
<g>
</g>
<g>
</g>
<g>
</g>
<g>
</g>
</svg>
